<svg width="450" height="229" viewBox="0 0 450 229" fill="none" xmlns="http://www.w3.org/2000/svg">
<g filter="url(#filter0_d_11_1489)">
<ellipse cx="225.5" cy="166.5" rx="155.5" ry="54.5" fill="white"/>
<path d="M373.5 166.5C373.5 170.902 370.972 176.157 363.995 181.939C357.064 187.682 346.584 193.189 332.974 197.959C305.824 207.475 267.826 213.5 225.5 213.5C183.174 213.5 145.176 207.475 118.026 197.959C104.416 193.189 93.936 187.682 87.0053 181.939C80.0278 176.157 77.5 170.902 77.5 166.5C77.5 162.098 80.0278 156.843 87.0053 151.061C93.936 145.318 104.416 139.811 118.026 135.041C145.176 125.525 183.174 119.5 225.5 119.5C267.826 119.5 305.824 125.525 332.974 135.041C346.584 139.811 357.064 145.318 363.995 151.061C370.972 156.843 373.5 162.098 373.5 166.5Z" stroke="#ECECEC" stroke-opacity="0.16" stroke-width="15"/>
</g>
<g filter="url(#filter1_d_11_1489)">
<ellipse cx="225" cy="124.5" rx="221" ry="76.5" fill="white"/>
<path d="M443.5 124.5C443.5 134.008 437.938 143.431 427.049 152.343C416.179 161.239 400.298 169.362 380.453 176.231C340.786 189.962 285.825 198.5 225 198.5C164.175 198.5 109.214 189.962 69.5472 176.231C49.702 169.362 33.8209 161.239 22.9506 152.343C12.0619 143.431 6.5 134.008 6.5 124.5C6.5 114.992 12.0619 105.569 22.9506 96.6574C33.8209 87.7612 49.702 79.6383 69.5472 72.7688C109.214 59.0381 164.175 50.5 225 50.5C285.825 50.5 340.786 59.0381 380.453 72.7688C400.298 79.6383 416.179 87.7612 427.049 96.6574C437.938 105.569 443.5 114.992 443.5 124.5Z" stroke="black" stroke-opacity="0.16" stroke-width="5"/>
</g>
<ellipse cx="225" cy="124" rx="205" ry="64" fill="#D9D9D9"/>
<ellipse cx="225.5" cy="124" rx="182.5" ry="57" fill="#C2C2C2"/>
<ellipse cx="225" cy="124.5" rx="145" ry="45.5" fill="#A6A6A6"/>
<ellipse cx="225.5" cy="124" rx="111.5" ry="35" fill="#808080"/>
<ellipse cx="225.5" cy="124.5" rx="55.5" ry="17.5" fill="#565656"/>
<path d="M65.6346 135.143L30.6047 80.7134L64.7291 58.7513L69.2789 65.8207L43.3666 82.4976L54.0398 99.0814L78.1715 83.5506L82.7041 90.5934L58.5725 106.124L69.297 122.788L95.5282 105.906L100.078 112.975L65.6346 135.143Z" fill="black"/>
<path d="M108.013 124.915L99.837 102.43L103.847 100.972C104.795 99.3269 105.479 97.2289 105.896 94.6781C106.314 92.1273 106.283 88.8987 105.804 84.9924C105.325 81.0861 104.218 76.2537 102.483 70.4951L94.5655 44.2842L132.079 30.6424L151.37 83.6904L158.261 81.1845L166.405 103.58L157.613 106.777L152.299 92.1636L111.459 107.015L116.805 121.718L108.013 124.915ZM114.658 97.0406L142.578 86.8876L126.161 41.7403L105.755 49.1607L111.275 67.2979C112.58 71.6884 113.558 75.7045 114.21 79.3462C114.881 82.9807 115.241 86.2803 115.287 89.2451C115.347 92.183 115.137 94.7815 114.658 97.0406Z" fill="black"/>
<path d="M171.017 87.9756L160.706 89.0505L177.162 22.2569L188.384 21.087L218.263 83.0501L207.953 84.125L184.259 33.3378L183.756 33.3902L171.017 87.9756ZM170.117 62.5847L203.564 59.0978L204.416 67.2709L170.969 70.7577L170.117 62.5847Z" fill="black"/>
<path d="M216.283 98.0631L219.464 74.3504L223.693 74.9176C225.296 73.8996 226.874 72.3575 228.427 70.291C229.98 68.2246 231.45 65.3499 232.836 61.6668C234.223 57.9837 235.483 53.1887 236.615 47.2819L241.753 20.3878L281.316 25.6944L273.812 81.6401L281.08 82.6149L277.912 106.234L268.639 104.99L270.707 89.5783L227.635 83.8011L225.556 99.3067L216.283 98.0631ZM235.095 76.447L264.54 80.3965L270.927 32.7831L249.407 29.8966L245.887 48.5256C245.008 53.0208 244.013 57.0327 242.902 60.5615C241.812 64.093 240.6 67.1831 239.267 69.8317C237.957 72.4622 236.567 74.6673 235.095 76.447Z" fill="black"/>
<path d="M287.844 93.8302L309.161 32.7136L347.478 46.078L344.709 54.016L315.613 43.8678L309.118 62.4893L336.215 71.9401L333.457 79.8482L306.36 70.3974L299.834 89.1084L329.288 99.3815L326.52 107.319L287.844 93.8302Z" fill="black"/>
<path d="M321.873 121.386L333.46 100.455L337.193 102.521C339.057 102.156 341.088 101.293 343.286 99.9332C345.484 98.573 347.898 96.4297 350.53 93.5033C353.161 90.5769 356.079 86.5685 359.282 81.478L373.85 58.2945L408.773 77.6271L381.435 127.012L387.85 130.563L376.309 151.412L368.124 146.881L375.655 133.277L337.635 112.23L330.058 125.917L321.873 121.386ZM347.258 108.093L373.25 122.481L396.517 80.4514L377.52 69.9356L367.467 86.0088C365.013 89.8764 362.626 93.2516 360.308 96.1346C358.008 99.0277 355.755 101.465 353.55 103.448C351.374 105.422 349.276 106.97 347.258 108.093Z" fill="black"/>
<defs>
<filter id="filter0_d_11_1489" x="66" y="112" width="319" height="117" filterUnits="userSpaceOnUse" color-interpolation-filters="sRGB">
<feFlood flood-opacity="0" result="BackgroundImageFix"/>
<feColorMatrix in="SourceAlpha" type="matrix" values="0 0 0 0 0 0 0 0 0 0 0 0 0 0 0 0 0 0 127 0" result="hardAlpha"/>
<feOffset dy="4"/>
<feGaussianBlur stdDeviation="2"/>
<feComposite in2="hardAlpha" operator="out"/>
<feColorMatrix type="matrix" values="0 0 0 0 0 0 0 0 0 0 0 0 0 0 0 0 0 0 0.17 0"/>
<feBlend mode="normal" in2="BackgroundImageFix" result="effect1_dropShadow_11_1489"/>
<feBlend mode="normal" in="SourceGraphic" in2="effect1_dropShadow_11_1489" result="shape"/>
</filter>
<filter id="filter1_d_11_1489" x="0" y="48" width="450" height="161" filterUnits="userSpaceOnUse" color-interpolation-filters="sRGB">
<feFlood flood-opacity="0" result="BackgroundImageFix"/>
<feColorMatrix in="SourceAlpha" type="matrix" values="0 0 0 0 0 0 0 0 0 0 0 0 0 0 0 0 0 0 127 0" result="hardAlpha"/>
<feOffset dy="4"/>
<feGaussianBlur stdDeviation="2"/>
<feComposite in2="hardAlpha" operator="out"/>
<feColorMatrix type="matrix" values="0 0 0 0 0 0 0 0 0 0 0 0 0 0 0 0 0 0 0.16 0"/>
<feBlend mode="normal" in2="BackgroundImageFix" result="effect1_dropShadow_11_1489"/>
<feBlend mode="normal" in="SourceGraphic" in2="effect1_dropShadow_11_1489" result="shape"/>
</filter>
</defs>
</svg>
