<svg width="379" height="379" viewBox="0 0 379 379" fill="none" xmlns="http://www.w3.org/2000/svg">
<circle cx="189.5" cy="189.5" r="189.5" fill="#DEDEDE"/>
<ellipse cx="189.5" cy="275.5" rx="158.5" ry="35.5" fill="white"/>
<path d="M116.933 135.563L110.619 134.639V130.789H149.812L150.89 142.724H146.501L144.268 135.255L125.172 134.793V156.507L138.031 156.276L139.109 149.885H143.344V167.595H139.109L138.031 160.973L125.172 160.742V183.688L146.886 182.918L150.967 173.216L155.51 174.602L153.277 188H110.542V184.227L116.933 183.457V135.563ZM210.131 183.38C210.131 184.047 209.849 187.333 209.284 193.236C208.72 199.139 208.412 202.168 208.36 202.322H203.432C203.33 200.423 203.099 197.651 202.739 194.006C202.431 190.361 202.2 188.359 202.046 188H166.857C166.652 188.205 166.139 190.156 165.317 193.852C164.547 197.548 163.957 200.397 163.546 202.399H158.541C158.593 200.346 158.695 197.266 158.849 193.159C159.055 189.104 159.234 185.844 159.388 183.38H165.009C166.241 181.84 167.576 179.325 169.013 175.834C170.502 172.292 171.837 167.518 173.017 161.512C174.198 155.455 174.788 148.371 174.788 140.26V135.563L166.857 134.639V130.789H210.439V134.639L203.201 135.563V183.38H210.131ZM179.562 140.722C179.614 148.011 179.177 154.633 178.253 160.588C177.329 166.491 176.226 171.368 174.942 175.218C173.71 179.068 172.581 181.789 171.554 183.38H195.039L195.116 135.255H179.562V140.722ZM236.032 130.327H244.502L263.213 183.457L267.987 184.227V188H247.659V184.227L254.05 183.457L250.431 172.061H227.947L224.328 183.457L230.95 184.227V188H212.701V184.227L217.475 183.457L236.032 130.327ZM240.883 142.647L238.958 135.871L237.11 142.801L229.333 167.518H248.968L240.883 142.647ZM159.976 259.38C159.976 260.047 159.694 263.333 159.129 269.236C158.564 275.139 158.256 278.168 158.205 278.322H153.277C153.174 276.423 152.943 273.651 152.584 270.006C152.276 266.361 152.045 264.359 151.891 264H116.702C116.497 264.205 115.983 266.156 115.162 269.852C114.392 273.548 113.802 276.397 113.391 278.399H108.386C108.437 276.346 108.54 273.266 108.694 269.159C108.899 265.104 109.079 261.844 109.233 259.38H114.854C116.086 257.84 117.421 255.325 118.858 251.834C120.347 248.292 121.681 243.518 122.862 237.512C124.043 231.455 124.633 224.371 124.633 216.26V211.563L116.702 210.639V206.789H160.284V210.639L153.046 211.563V259.38H159.976ZM129.407 216.722C129.458 224.011 129.022 230.633 128.098 236.588C127.174 242.491 126.07 247.368 124.787 251.218C123.555 255.068 122.426 257.789 121.399 259.38H144.884L144.961 211.255H129.407V216.722ZM173.48 211.563L167.166 210.639V206.789H206.359L207.437 218.724H203.048L200.815 211.255L181.719 210.793V232.507L194.578 232.276L195.656 225.885H199.891V243.595H195.656L194.578 236.973L181.719 236.742V259.688L203.433 258.918L207.514 249.216L212.057 250.602L209.824 264H167.089V260.227L173.48 259.457V211.563ZM266.678 259.38C266.678 260.047 266.396 263.333 265.831 269.236C265.266 275.139 264.958 278.168 264.907 278.322H259.979C259.876 276.423 259.645 273.651 259.286 270.006C258.978 266.361 258.747 264.359 258.593 264H223.404C223.199 264.205 222.685 266.156 221.864 269.852C221.094 273.548 220.504 276.397 220.093 278.399H215.088C215.139 276.346 215.242 273.266 215.396 269.159C215.601 265.104 215.781 261.844 215.935 259.38H221.556C222.788 257.84 224.123 255.325 225.56 251.834C227.049 248.292 228.383 243.518 229.564 237.512C230.745 231.455 231.335 224.371 231.335 216.26V211.563L223.404 210.639V206.789H266.986V210.639L259.748 211.563V259.38H266.678ZM236.109 216.722C236.16 224.011 235.724 230.633 234.8 236.588C233.876 242.491 232.772 247.368 231.489 251.218C230.257 255.068 229.128 257.789 228.101 259.38H251.586L251.663 211.255H236.109V216.722Z" fill="black"/>
</svg>
